Coordinates
version=1
nRows=29
nColumns=24
inDegrees=yes

Units are S.I. units (second, meters, Newtons, ...)
Angles are in degrees.

endheader
time	pelvis_tilt	pelvis_list	pelvis_rotation	pelvis_tx	pelvis_ty	pelvis_tz	hip_flexion_r	hip_adduction_r	hip_rotation_r	knee_angle_r	ankle_angle_r	subtalar_angle_r	mtp_angle_r	hip_flexion_l	hip_adduction_l	hip_rotation_l	knee_angle_l	ankle_angle_l	subtalar_angle_l	mtp_angle_l	lumbar_extension	lumbar_bending	lumbar_rotation
      1.58750000	      3.35647323	      4.07445275	     -1.97355749	      0.41974413	      1.07499580	      0.31063476	     13.40931330	     -5.59951157	      0.28768696	    -61.89674903	      1.25237105	    -11.62710745	      5.41048446	      0.83634396	      9.34670072	     -4.08834355	     -5.40533883	      1.67536272	      1.39075790	      1.40397329	      2.37763215	     -2.41709316	     -0.55906183
      1.59166667	      3.36757132	      4.07318273	     -1.88349133	      0.42438767	      1.07536208	      0.31041867	     13.89983908	     -5.56473732	      0.40619910	    -61.54157527	      1.69349306	    -12.02803074	      5.32421564	      0.41200477	      9.36766731	     -3.95179426	     -5.16160144	      1.76848686	      1.43968842	      1.35792044	      2.34574476	     -2.40754660	     -0.65951875
      1.59583333	      3.37682623	      4.07860617	     -1.79692993	      0.42896225	      1.07568754	      0.31019847	     14.39255558	     -5.53682938	      0.53178112	    -61.15270696	      2.08976309	    -12.37626992	      5.24296549	     -0.00809335	      9.39593961	     -3.80917699	     -4.90167613	      1.85355781	      1.49129148	      1.31440627	      2.32637804	     -2.39465333	     -0.75733717
      1.60000000	      3.35434198	      4.05291239	     -1.69623890	      0.43358945	      1.07597615	      0.31005645	     14.89005683	     -5.46477043	      0.66068526	    -60.69211313	      2.32810467	    -12.55245374	      5.20568908	     -0.39391550	      9.37447183	     -3.71748945	     -4.66190464	      1.90436514	      1.52952694	      1.29475647	      2.26509709	     -2.39997435	     -0.80878017
      1.60416667	      3.38709415	      4.08494125	     -1.61464872	      0.43812149	      1.07625732	      0.30974218	     15.34493838	     -5.48400018	      0.76223260	    -60.26061363	      2.85482339	    -12.96494193	      5.11513461	     -0.84800974	      9.44532812	     -3.53233338	     -4.38153189	      2.01979650	      1.57312180	      1.24561744	      2.29943659	     -2.36475852	     -0.92831246
      1.60833333	      3.37864396	      4.08831669	     -1.52527208	      0.44268128	      1.07648364	      0.30955550	     15.82007859	     -5.45308478	      0.88249590	    -59.75221274	      3.19080439	    -13.21022927	      5.03324965	     -1.25678381	      9.46436727	     -3.37813394	     -4.10706049	      2.09950287	      1.60586796	      1.19978384	      2.27735916	     -2.36315821	     -1.03330543
      1.61250000	      3.36102735	      4.09345844	     -1.43739876	      0.44723955	      1.07666917	      0.30935505	     16.29358661	     -5.42591281	      1.00125644	    -59.20906767	      3.51092465	    -13.41795796	      4.95332923	     -1.65664710	      9.48595411	     -3.22900359	     -3.83231052	      2.17640146	      1.63177120	      1.15417590	      2.28049720	     -2.35482061	     -1.13347105
      1.61666667	      3.34255135	      4.10455643	     -1.34798931	      0.45180086	      1.07682379	      0.30916957	     16.75604209	     -5.40541094	      1.11576709	    -58.63281154	      3.81698853	    -13.59355587	      4.86922713	     -2.05818163	      9.51193749	     -3.07766540	     -3.55495865	      2.25284655	      1.64868978	      1.10514731	      2.28530063	     -2.35867117	     -1.23370615
      1.62083333	      3.29519019	      4.10485274	     -1.25302804	      0.45633503	      1.07692133	      0.30906424	     17.23391918	     -5.36399822	      1.24074717	    -57.99769166	      3.99950903	    -13.67526288	      4.82886276	     -2.41559021	      9.51264249	     -2.98763700	     -3.30128718	      2.29878151	      1.67069000	      1.08169016	      2.24466292	     -2.38188338	     -1.28360442
      1.62500000	      3.26600200	      4.11690366	     -1.18779410	      0.46089731	      1.07699616	      0.30893336	     17.68808800	     -5.33765367	      1.37908286	    -57.34590337	      4.22173038	    -13.77485080	      4.78709451	     -2.80960567	      9.53630850	     -2.85308115	     -3.01003105	      2.35790674	      1.70432718	      1.05751139	      2.25241811	     -2.39046540	     -1.33877490
      1.62916667	      3.25988625	      4.14647024	     -1.11993889	      0.46543850	      1.07705875	      0.30868600	     18.11034908	     -5.34852833	      1.48229298	    -56.67824896	      4.53678575	    -13.90931105	      4.70479324	     -3.23672680	      9.59216987	     -2.65108962	     -2.69631197	      2.45797209	      1.70649006	      1.00742077	      2.33774719	     -2.36259621	     -1.44224643
      1.63333333	      3.20287334	      4.16411707	     -1.03057930	      0.46993160	      1.07703478	      0.30858300	     18.57032535	     -5.32853134	      1.59839111	    -55.95183293	      4.67123973	    -13.94550162	      4.66779449	     -3.57835120	      9.61064495	     -2.57214730	     -2.44924360	      2.50366447	      1.71296458	      0.98466257	      2.28958575	     -2.40278564	     -1.48632087
      1.63750000	      3.15382953	      4.18872381	     -0.97394452	      0.47447791	      1.07698256	      0.30851339	     19.01082623	     -5.30944832	      1.73920679	    -55.19158577	      4.82242145	    -13.98759810	      4.62572682	     -3.94927440	      9.64030034	     -2.43507952	     -2.15733607	      2.56331853	      1.73200844	      0.95871221	      2.31184645	     -2.42585071	     -1.53728629
      1.64166667	      3.10631086	      4.21548246	     -0.91542691	      0.47900930	      1.07690039	      0.30840419	     19.43871272	     -5.29955256	      1.86390456	    -54.40398058	      4.95240971	    -14.01770605	      4.58490228	     -4.31809412	      9.67619739	     -2.31029778	     -1.87361066	      2.62624382	      1.74109308	      0.93306439	      2.34126898	     -2.44865286	     -1.58551296
      1.64583333	      3.08188684	      4.24831638	     -0.86030376	      0.48358354	      1.07681293	      0.30819836	     19.82735809	     -5.31157134	      1.95816613	    -53.58922312	      5.08520990	    -14.03888895	      4.49552392	     -4.72933999	      9.73052307	     -2.09276087	     -1.55698519	      2.73337397	      1.70110387	      0.87382936	      2.46780645	     -2.43021910	     -1.68584149
      1.65000000	      2.97666273	      4.26113715	     -0.69774721	      0.48817779	      1.07663668	      0.30788756	     20.25837883	     -5.33099223	      1.95567098	    -52.70701421	      5.13273847	    -14.00249502	      4.18139392	     -5.04430832	      9.74654932	     -1.76117245	     -1.28863290	      2.85597086	      1.39206609	      0.65184880	      2.57114796	     -2.42549288	     -1.96633550
      1.65416667	      2.92918182	      4.32665314	     -0.70282191	      0.49261294	      1.07639998	      0.30790600	     20.68131531	     -5.34137200	      2.13220523	    -51.85141027	      5.17952154	    -14.00704913	      4.12099185	     -5.40026199	      9.82243231	     -1.67683789	     -1.00369843	      2.84690909	      1.43824866	      0.60967945	      2.56613633	     -2.52169394	     -1.98558548
      1.65833333	      2.85698914	      4.37180589	     -0.65746276	      0.49712849	      1.07613779	      0.30785044	     21.09509194	     -5.34807514	      2.22576514	    -50.95123118	      5.22098326	    -14.00447224	      4.09432702	     -5.71985632	      9.87205411	     -1.65426739	     -0.75242854	      2.87972276	      1.45782334	      0.59179013	      2.53003275	     -2.58578297	     -1.99223499
      1.66250000	      2.82080665	      4.41278050	     -0.64668217	      0.50169608	      1.07589317	      0.30782731	     21.45174143	     -5.34041755	      2.36887953	    -50.00138274	      5.17041801	    -13.98238897	      4.02408725	     -6.10457529	      9.92117904	     -1.50974502	     -0.46612465	      2.96014320	      1.48351636	      0.54314506	      2.66540000	     -2.60484600	     -2.01160155
      1.66666667	      2.73759746	      4.46780545	     -0.60001383	      0.50621029	      1.07554651	      0.30779008	     21.84981445	     -5.35777492	      2.45600928	    -49.04109593	      5.18419888	    -13.97476948	      3.99539446	     -6.40439055	      9.97640312	     -1.47813651	     -0.24018886	      3.00881550	      1.49507627	      0.52353289	      2.62927191	     -2.67118536	     -2.01581620
      1.67083333	      2.66971987	      4.51951102	     -0.57930619	      0.51074403	      1.07518424	      0.30778085	     22.22141979	     -5.36379408	      2.55645105	    -48.04937204	      5.16276532	    -13.95569555	      3.96580536	     -6.72861473	     10.03098176	     -1.40772320	      0.00312245	      3.07212081	      1.51936535	      0.50362870	      2.65380471	     -2.73857033	     -2.01702589
      1.67500000	      2.61310299	      4.56549928	     -0.53715681	      0.51535417	      1.07482472	      0.30764737	     22.55266526	     -5.38723298	      2.60501359	    -47.00542322	      4.91410166	    -13.91551006	      3.85284235	     -7.08112224	     10.08800517	     -1.22796454	      0.25762467	      3.24418615	      1.50344855	      0.42132863	      2.84300581	     -2.71301755	     -2.03962198
      1.67916667	      2.52829385	      4.63881707	     -0.50060527	      0.51979436	      1.07436461	      0.30768207	     22.92369121	     -5.41530280	      2.69800622	    -45.97595374	      4.93475009	    -13.91456928	      3.82879517	     -7.35495013	     10.15593920	     -1.20519123	      0.43603048	      3.28429480	      1.51622697	      0.40422410	      2.80084934	     -2.80188944	     -2.03663371
      1.68333333	      2.47210486	      4.69245025	     -0.49139626	      0.52438642	      1.07393294	      0.30765399	     23.23703461	     -5.42888065	      2.77116053	    -44.89117324	      4.74367861	    -13.87115662	      3.75085241	     -7.69662540	     10.21627872	     -1.06156281	      0.67586905	      3.41536059	      1.53989702	      0.34635289	      2.97840973	     -2.84973351	     -2.03523046
      1.68750000	      2.38590053	      4.75469399	     -0.45369716	      0.52895848	      1.07342929	      0.30761145	     23.56834566	     -5.46079711	      2.80180047	    -43.79286604	      4.58312859	    -13.84737477	      3.66393363	     -7.98328063	     10.27903729	     -0.97165161	      0.86807043	      3.54271801	      1.54733653	      0.27934436	      3.05437059	     -2.90034969	     -2.03500401
      1.69166667	      2.30280712	      4.82275183	     -0.43116914	      0.53351584	      1.07289586	      0.30758959	     23.89080918	     -5.49422881	      2.83189958	    -42.68277061	      4.45256854	    -13.81880169	      3.58246671	     -8.26682274	     10.35000005	     -0.90004011	      1.05297996	      3.65837172	      1.56655263	      0.21514361	      3.12573791	     -2.96391470	     -2.02998657
      1.69583333	      2.21454213	      4.88917323	     -0.40610286	      0.53808542	      1.07232276	      0.30757903	     24.20314266	     -5.52771921	      2.84535435	    -41.54846705	      4.31799413	    -13.77010169	      3.50177671	     -8.53776103	     10.41633560	     -0.83497458	      1.22065347	      3.78634216	      1.59342433	      0.15048029	      3.20368926	     -3.02746029	     -2.01989542
      1.70000000	      2.11687706	      4.97089536	     -0.39188069	      0.54258604	      1.07169744	      0.30762262	     24.52514862	     -5.56783070	      2.86956540	    -40.41812444	      4.31670294	    -13.74230376	      3.47578099	     -8.77690776	     10.49730088	     -0.83866561	      1.35609403	      3.84847007	      1.60541070	      0.13026187	      3.17514399	     -3.11292678	     -2.00880785
      1.70416667	      2.04825161	      5.03076949	     -0.37003642	      0.54723362	      1.07112586	      0.30754870	     24.77829052	     -5.60635770	      2.83080150	    -39.22801089	      4.07440119	    -13.61171674	      3.39986167	     -9.07389118	     10.56245046	     -0.72840571	      1.52010586	      4.04523897	      1.67043743	      0.06945829	      3.36730142	     -3.15511853	     -1.98684454
